<svg width="30" height="23" viewBox="0 0 30 23" fill="none" xmlns="http://www.w3.org/2000/svg">
<path d="M23.231 20.4444H6.31275V21.7222C6.31275 22.4279 5.7717 23 5.1043 23H3.89585C3.22845 23 2.6874 22.4279 2.6874 21.7222V12.1389L1.18586 11.742C0.647903 11.5998 0.270508 11.0887 0.270508 10.5023V9.58333C0.270508 9.23054 0.541029 8.94444 0.874732 8.94444H2.6874L5.68496 1.54887C6.06582 0.609232 6.93962 0 7.90644 0H21.6373C22.6042 0 23.4779 0.609232 23.8588 1.54887L26.8564 8.94444H28.669C29.0027 8.94444 29.2733 9.23054 29.2733 9.58333V10.5023C29.2733 11.0887 28.8959 11.5998 28.3579 11.742L26.8564 12.1389V21.7222C26.8564 22.4279 26.3153 23 25.6479 23H24.4395C23.772 23 23.231 22.4279 23.231 21.7222V20.4444ZM24.4395 17.8889V11.5H5.1043V17.8889H24.4395ZM6.88922 8.94444H22.6546C22.8083 8.94444 22.9606 8.91339 23.1034 8.85308C23.723 8.59101 24.0245 7.84734 23.7765 7.19211L22.0226 2.55556H7.5212L5.76721 7.19211C5.71011 7.34304 5.68077 7.50411 5.68077 7.66667C5.68077 8.37238 6.22181 8.94444 6.88922 8.94444ZM6.31275 12.7778C9.11239 12.7778 10.9999 13.7422 11.9754 15.671C12.1327 15.9822 12.0217 16.3692 11.7274 16.5356C11.6398 16.5852 11.5419 16.6111 11.4426 16.6111H7.5212C6.8538 16.6111 6.31275 16.0391 6.31275 15.3333V12.7778ZM23.231 12.7778V15.3333C23.231 16.0391 22.69 16.6111 22.0226 16.6111H18.1012C18.0018 16.6111 17.9039 16.5852 17.8163 16.5356C17.5221 16.3692 17.4111 15.9822 17.5685 15.671C18.5439 13.7422 20.4314 12.7778 23.231 12.7778Z" fill="#FF9500"/>
</svg>
