<svg width="28" height="21" viewBox="0 0 28 21" fill="none" xmlns="http://www.w3.org/2000/svg">
<path d="M21.6902 17.8437H5.70796V18.959C5.70796 19.5749 5.19685 20.0742 4.56637 20.0742H3.42478C2.7943 20.0742 2.28318 19.5749 2.28318 18.959V10.5947L0.864715 10.2483C0.356516 10.1242 0 9.67811 0 9.16633V8.36425C0 8.05634 0.255554 7.80664 0.570796 7.80664H2.28318L5.1149 1.35184C5.47469 0.531732 6.30015 0 7.21348 0H20.1847C21.0981 0 21.9235 0.531732 22.2833 1.35184L25.115 7.80664H26.8274C27.1426 7.80664 27.3982 8.05634 27.3982 8.36425V9.16633C27.3982 9.67811 27.0417 10.1242 26.5335 10.2483L25.115 10.5947V18.959C25.115 19.5749 24.6039 20.0742 23.9734 20.0742H22.8318C22.2013 20.0742 21.6902 19.5749 21.6902 18.959V17.8437ZM22.8318 15.6133V10.0371H4.56637V15.6133H22.8318ZM6.25253 7.80664H21.1457C21.2909 7.80664 21.4348 7.77954 21.5697 7.7269C22.155 7.49816 22.4398 6.8491 22.2056 6.27721L20.5487 2.23047H6.84955L5.1926 6.27721C5.13866 6.40895 5.11094 6.54952 5.11094 6.6914C5.11094 7.30735 5.62205 7.80664 6.25253 7.80664ZM5.70796 11.1523C8.35271 11.1523 10.1358 11.9941 11.0573 13.6776C11.206 13.9491 11.101 14.2869 10.8231 14.4321C10.7403 14.4754 10.6479 14.498 10.554 14.498H6.84955C6.21907 14.498 5.70796 13.9987 5.70796 13.3828V11.1523ZM21.6902 11.1523V13.3828C21.6902 13.9987 21.1792 14.498 20.5487 14.498H16.8442C16.7503 14.498 16.6579 14.4754 16.5751 14.4321C16.2971 14.2869 16.1923 13.9491 16.341 13.6776C17.2625 11.9941 19.0455 11.1523 21.6902 11.1523Z" fill="#FF9500"/>
</svg>
