<svg width="24" height="18" viewBox="0 0 24 18" fill="none" xmlns="http://www.w3.org/2000/svg">
<path d="M19.7219 16H3.48033V17C3.48033 17.5523 2.96093 18 2.32022 18H1.16011C0.519405 18 0 17.5523 0 17V8L2.91575 1.29775C3.25535 0.51715 4.12107 0 5.08824 0H18.114C19.0811 0 19.9468 0.51715 20.2865 1.29775L23.2022 8V17C23.2022 17.5523 22.6828 18 22.0421 18H20.882C20.2413 18 19.7219 17.5523 19.7219 17V16ZM2.478 8H20.7242L18.114 2H5.08824L2.478 8ZM5.2205 13C6.18157 13 6.96066 12.3284 6.96066 11.5C6.96066 10.6716 6.18157 10 5.2205 10C4.25943 10 3.48033 10.6716 3.48033 11.5C3.48033 12.3284 4.25943 13 5.2205 13ZM17.9817 13C18.9427 13 19.7219 12.3284 19.7219 11.5C19.7219 10.6716 18.9427 10 17.9817 10C17.0207 10 16.2415 10.6716 16.2415 11.5C16.2415 12.3284 17.0207 13 17.9817 13Z" fill="#97C21D"/>
</svg>
